<?xml version="1.0" encoding="UTF-8"?>
<svg width="764px" height="272px" viewBox="0 0 764 272" version="1.1" xmlns="http://www.w3.org/2000/svg" xmlns:xlink="http://www.w3.org/1999/xlink">
    <!-- Generator: Sketch 47.1 (45422) - http://www.bohemiancoding.com/sketch -->
    <title>logo long</title>
    <desc>Created with Sketch.</desc>
    <defs></defs>
    <g id="Page-1" stroke="none" stroke-width="1" fill="none" fill-rule="evenodd">
        <g id="logo-long" fill-rule="nonzero">
            <path d="M331.17,132.79 C331.17,132.79 330.89,78.79 333.05,66.04 C334.48,57.59 337.86,43.32 345.55,42.74 C350.29,43.03 352.63,50.29 352.63,63.94 L352.63,85.5 C352.63,90.4 351.99,113.62 361.26,121.92 C363.48326,123.950899 366.388804,125.071711 369.4,125.06 C370.136949,125.058499 370.872608,124.998309 371.6,124.88 C378.13,123.88 382.23,118.88 384.79,112.54 C386.317568,116.321416 388.411524,119.848434 391,123 C395.91,128.7 402.14,131.68 409.1,131.68 C409.56,131.68 410.02,131.68 410.49,131.68 C419.335081,131.32164 427.607318,127.207348 433.23,120.37 C442.53,109.17 446.1,90.92 443.91,66.12 L434.49,67.81 C436.71,94.65 431.22,107.88 425.9,114.28 C421.983199,119.073857 416.187039,121.942773 410,122.15 C405.43,122.42 401.59,120.66 398.27,116.81 C394.15,112.03 391.27,104.29 389.75,95.23 C398.75,93.33 417.09,86.13 421.41,58.83 C424.21,41.14 417.25,33.39 409.8,32.03 C396.66,29.61 384.42,44.58 381.22,60.03 C379.205665,69.6139771 378.575924,79.4372663 379.35,89.2 C378.97,101.2 376.26,114.46 370.11,115.45 C369.276303,115.648775 368.399063,115.402996 367.79,114.8 C363.37,110.85 362.03,95.48 362.5,85.8 L362.5,63.94 C362.5,43.76 356.88,33.39 345.8,33.11 L345.45,33.11 C334.96,33.6 327.83,43.11 324.21,61.33 C323.278782,60.0248435 322.186852,58.8421992 320.96,57.81 C317.347551,54.8024797 312.572177,53.5829227 307.96,54.49 C304.871916,55.0732134 301.999909,56.4832965 299.65,58.57 L299.65,49.47 L290.07,51.18 C290.07,70.18 289.48,85.18 279.78,95.39 C279.67,95.51 279.54,95.61 279.43,95.73 C275.77,78.2 266.87,66.41 255.91,66.41 C254.611152,66.4296077 253.320352,66.6178493 252.07,66.97 L252,67 C250.688863,67.4674773 249.431667,68.0742835 248.25,68.81 L248.25,68.81 C248.25,68.81 248.25,68.81 248.2,68.81 C239.76,73.6 233.44,86 231.35,102 L231.35,102 C231.35,102 231.35,102.21 231.35,102.32 C230.867105,106.187955 230.623308,110.082019 230.62,113.98 C230.62,114.75 230.62,115.43 230.67,116.18 C227.8,143.72 216.57,147 211.34,147 L211.34,147 C205.24,147 200.66,143.33 197.34,135.7 C195.11,130.57 193.62,123.94 192.9,116.2 C192.77,111.79 192.54,108.55 192.43,107.2 C192.43,106.55 192.43,105.92 192.43,105.26 C192.43,90.18 196.1,77.26 202.02,71.63 C203.521706,69.9926825 205.628705,69.0421839 207.85,69 C209.940643,69.0357269 211.88817,70.0689567 213.09,71.78 C217.09,76.97 217.88,88.78 215.18,101.24 L225.18,99.59 C227.18,87.93 226.82,74.07 220.64,65.99 C217.718377,62.0394544 213.150866,59.6415116 208.24,59.48 C203.390389,59.3557672 198.708406,61.2582758 195.32,64.73 C187.47,72.24 182.79,87.39 182.79,105.24 C182.79,108.6 182.92,112.48 183.28,116.54 C183.69,131.54 182.71,154.92 175.56,163.25 C174.512304,164.672781 172.900812,165.573321 171.14,165.72 C169.491574,165.891951 167.859208,165.272394 166.74,164.05 C160.74,158.11 159.51,139.19 160.15,128.66 L160.15,82.35 C160.15,81.06 160.15,29.2 160.15,22.14 L150.62,23.82 C150.62,42.82 150.62,73.97 150.62,80.97 L150.62,80.97 L150.62,82.44 C149.62,156.95 134.89,169.92 125.87,171.02 C122.71,171.39 119.87,170.16 117.15,167.21 C113.84,163.62 111.33,158.12 109.75,151.61 C121.43,147.38 137.85,136.28 140.31,115.08 C142.93,92.57 131.41,88.93 127.82,88.35 C117.65,86.69 104.13,97 100.1,116.5 C95.5,138.74 99.63,162.25 110.1,173.67 C114.31,178.24 119.32,180.61 124.71,180.61 C125.472225,180.612586 126.233818,180.565822 126.99,180.47 C138.23,179.11 146.54,169.94 151.99,152.77 C153.33,159.77 155.72,166.58 159.99,170.77 C162.791639,173.6272 166.628422,175.231869 170.63,175.22 C171,175.22 171.38,175.22 171.76,175.22 C176.069573,174.902187 180.053571,172.808777 182.76,169.44 C187.5,163.93 190.1,154.96 191.48,145.32 C197.48,154.64 205.31,157 211.25,157 L211.25,157 C221.7,157 229.66,150.62 234.67,139.16 C239.04,150.48 246.57,157.26 255.84,157.26 C270.75,157.26 281.16,139.45 281.16,114.02 C281.16,111.73 281.06,109.47 280.9,107.28 C282.844994,105.647273 284.682174,103.890261 286.4,102.02 C287.558073,100.743863 288.624086,99.3871187 289.59,97.96 L289.59,149.28 L299.59,147.45 L299.59,85.54 C300.59,75.89 302.83,65.03 309.5,63.89 C311.385398,63.4485039 313.368764,63.9147431 314.86,65.15 C320.09,69.48 321.59,82.15 321.59,86.15 L321.59,134.49 L330.59,132.78 L331.17,132.79 Z M390.53,62 C393.26,48.8 401.81,41.35 407.15,41.35 C407.458081,41.3476649 407.765819,41.3710797 408.07,41.42 C411.87,42.12 413.4,48.42 411.98,57.36 C408.67,78.26 395.76,84.11 388.9,85.75 C388.9,83.25 388.8,81.42 388.75,80.66 L388.64,80.66 C388.648279,74.3926447 389.28141,68.1417289 390.53,62 Z M109.45,118.43 C112.2,105.1 120.35,97.7 125.53,97.7 C125.794482,97.6997242 126.058594,97.7197834 126.32,97.76 C130.15,98.38 131.93,104.76 130.86,113.98 C128.86,131.04 115.86,138.81 108.17,141.98 C107.438614,134.109722 107.869904,126.174643 109.45,118.43 Z M252.3,77.18 C253.35377,76.4480544 254.597532,76.0380995 255.88,76 C261.98,76 268.66,86.88 270.88,102.74 C265.88,105.74 261.11,106.53 256.79,105.08 C250.71,103.08 246.97,96.99 246.42,92.08 C245.48,83.59 249.41,79.22 252.3,77.18 Z M255.88,147.6 C248.48,147.6 240.64,136.53 240.14,116.01 C240.533333,112.15 240.753333,108.036667 240.8,103.67 C243.838886,108.499152 248.419775,112.160339 253.8,114.06 C257.61,115.34 263.91,116.25 271.69,112.93 C271.69,113.27 271.69,113.6 271.69,113.93 C271.67,135.81 263.54,147.6 255.88,147.6 L255.88,147.6 Z" id="Shape" fill="#FFFFFF"></path>
            <g id="jungle" transform="translate(362.000000, 0.000000)" fill="#00C29A">
                <path d="M283.63,64.46 C279.63,58.16 273.91,54.61 267.78,54.61 C253.78,54.61 243.17,73.97 242.56,99.97 L242.56,99.97 C242.56,99.97 242.56,100.09 242.56,100.23 C242.56,100.87 242.56,101.41 242.56,102.06 C242.563224,105.402231 242.763572,108.741362 243.16,112.06 C243.9,125.91 244.57,149.37 235.83,151.17 C233.83,151.58 232.89,151.07 232.3,150.59 C227.64,146.79 227.64,131.59 227.64,125.07 C227.64,123.25 227.78,120.77 227.94,117.9 C228.68,104.59 229.69,86.36 221.25,78.99 C219.06,77.08 215.15,74.99 209.31,76.16 C203.926916,77.2554422 199.305659,80.6792737 196.69,85.51 L196.69,75 L187.69,76.77 L187.69,113.58 C186.69,165.73 178.44,172.92 174.69,173.46 C173.415708,173.684109 172.111718,173.278009 171.19,172.37 C166.46,168.03 164.27,154.75 163.77,142.43 C163.84,138.71 163.68,134.96 163.68,131.21 L163.68,100.41 L154.68,102.18 L154.68,127.61 C154.68,129.31 154.19,135 154.44,142.11 C153.38,191.46 145.1,195.52 142.44,195.52 C140.377596,195.566903 138.387384,194.759963 136.94,193.29 C131.69,187.92 130.66,174.89 130.66,170.22 L130.66,95.52 L121.66,97.29 L121.66,170.1 C121.66,172.19 121.37,190.75 130.35,199.94 C133.492111,203.235286 137.856916,205.084719 142.41,205.05 C153.29,205.05 158.77,192.78 161.47,175.43 C162.339155,176.869223 163.398734,178.184447 164.62,179.34 C167.691625,182.183808 171.892086,183.472293 176.03,182.84 C180.83,182.15 184.66,179.04 187.66,174.11 L187.66,189.11 L196.66,187.11 L196.66,130.11 C197.66,113.43 200.66,87.59 211.09,85.57 C213.29,85.14 214.31,85.7 214.91,86.23 C219.85,90.53 218.91,108.03 218.38,117.43 C218.21,120.43 218.08,123.05 218.08,125.12 C218.08,137.82 218.71,151.88 226.24,158.02 C229.463017,160.60697 233.709778,161.539186 237.72,160.54 C247.34,158.54 251.16,148.85 252.48,137.29 C256.63,142.36 261.84,145.29 267.81,145.29 C274.04,145.29 279.66,142.15 283.66,136.68 L283.66,175.48 C283.824482,182.521013 283.456769,189.564391 282.56,196.55 C280.79,208.88 276.69,216.68 269.98,220.41 C265.11026,222.966614 259.437248,223.529612 254.16,221.98 C249.449442,220.742539 245.430404,217.67064 243,213.45 C238,204.34 237.75,194.04 242.42,185.91 C246.95,178.02 255.34,173.53 266.02,173.28 L265.79,163.67 C251.79,164.01 240.27,170.37 234.1,181.13 C227.74,192.2 227.93,206.01 234.6,218.13 C238.261031,224.575621 244.351168,229.286384 251.51,231.21 C254.362546,232.022838 257.313906,232.436769 260.28,232.44 C265.300277,232.467777 270.245187,231.218646 274.65,228.81 C284.16,223.52 289.87,213.41 292.09,197.91 C293.068793,190.475397 293.479982,182.97705 293.32,175.48 L293.32,45.41 L283.68,47.19 L283.63,64.46 Z M267.82,135.72 C261.36,135.72 254.59,127.28 252.61,111.51 C252.56,110.45 252.5,109.41 252.44,108.41 C252.25,105.04 252.09,102.14 252.07,99.99 C252.57,79.25 260.6,63.99 267.82,63.99 C275.27,63.99 283.61,80.24 283.61,101.99 C283.61,123.89 275.48,135.72 267.82,135.72 Z" id="Shape"></path>
                <path d="M401.22,62.51 L391.8,64.2 C394.02,91.04 388.53,104.27 383.21,110.67 C379.272412,115.493472 373.433961,118.36891 367.21,118.55 C362.64,118.82 358.8,117.06 355.48,113.21 C351.36,108.43 348.48,100.69 346.96,91.63 C355.96,89.73 374.3,82.52 378.62,55.23 C381.42,37.54 374.46,29.79 367.01,28.43 C353.86,26.03 341.63,40.98 338.43,56.43 C336.211156,66.9456767 335.681185,77.7476256 336.86,88.43 C337.42,103.87 336.7,130.36 329.03,139.26 C328.029287,140.634447 326.483476,141.509434 324.79,141.66 C323.229171,141.808398 321.689112,141.216068 320.63,140.06 C314.43,133.93 313.15,113.75 313.79,102.46 L314,0 L304.62,1.77 L304.62,102.07 C303.62,106.07 303,135.85 314.12,146.85 C316.835361,149.64889 320.570393,151.225904 324.47,151.22 C324.83,151.22 325.16,151.22 325.47,151.22 C329.698347,150.903607 333.605781,148.846681 336.26,145.54 C341.81,139.1 344.47,127.54 345.67,115.93 C346.451634,117.167656 347.316986,118.350415 348.26,119.47 C353.17,125.17 359.39,128.15 366.35,128.15 C366.81,128.15 367.27,128.15 367.74,128.15 C376.585081,127.79164 384.857318,123.677348 390.48,116.84 C399.85,105.55 403.41,87.31 401.22,62.51 Z M346,80.74 L346,80.74 C345.723566,73.2409918 346.334471,65.7355926 347.82,58.38 C350.55,45.18 359.1,37.72 364.44,37.72 C364.748363,37.7209228 365.056106,37.7476831 365.36,37.8 C369.16,38.5 370.69,44.8 369.27,53.74 C365.94,74.69 353,80.52 346.13,82.15 C346.08,81.53 346.05,81.06 346,80.74 Z" id="Shape"></path>
                <path d="M97.63,204.2 C97.63,236.8 78.78,262.34 54.88,262.34 C25.82,262.34 10.07,234.57 10.07,208.44 C10.07,187.01 16.14,170.59 27.23,162.22 C34.7,156.57 41.97,154.56 49.52,156.09 C58.35,157.87 65.86,164.24 71.11,170.09 L78.32,163.84 C72.05,156.84 62.8,149.11 51.44,146.79 C41.2,144.71 31.11,147.36 21.44,154.65 C7.92,164.88 0.44,183.99 0.44,208.48 C0.44,244.64 23.64,271.9 54.58,271.9 C83.82,271.9 106.58,242.18 106.58,204.24 L106.58,52.55 L97.58,54.25 L97.63,204.2 Z" id="Shape"></path>
            </g>
            <path d="M100.9,10.41 C84,92.46 76.75,156.37 73.64,196.62 L54.86,71.62 L45.86,73.23 L28.26,205.83 C24,148.2 14.64,91.2 9.38,62 L0,63.71 C6.78,101.28 20.44,185.56 20.94,257 L31.3,255.14 L50.8,108.69 L69.89,235.78 L81.06,233.78 C82,205.61 86.7,125.35 111,8.6 L100.9,10.41 Z" id="Shape" fill="#FFFFFF"></path>
            <polygon id="Shape" fill="#FFFFFF" points="484.63 72.61 490.63 71.84 490.63 44.79 494.63 44.29 494.63 38.93 480.63 40.6 480.63 46 484.63 45.5"></polygon>
            <polygon id="Shape" fill="#FFFFFF" points="546.63 50.81 551.63 50.08 551.63 23.65 555.63 23.17 555.63 17.93 542.63 19.54 542.63 24.81 546.63 24.33"></polygon>
            <polygon id="Shape" fill="#FFFFFF" points="573.63 49.97 578.63 49.33 578.63 62.49 584.63 61.72 584.63 30.44 578.63 31.14 578.63 44.13 573.63 44.77 573.63 31.75 567.63 32.46 567.63 63.94 573.63 63.16"></polygon>
            <polygon id="Shape" fill="#FFFFFF" points="612.63 38.79 605.63 39.68 605.63 31.79 611.63 31.04 611.63 25.91 605.63 26.65 605.63 18.94 612.63 18.12 612.63 13 599.63 14.47 599.63 45.56 612.63 43.92"></polygon>
            <path d="M510.63,81 C515.79,80.28 519.63,74.7 519.63,64.12 L519.63,62.43 C519.63,51.84 515.79,47.2 510.63,47.85 C505.47,48.5 501.63,54.07 501.63,64.73 L501.63,66.39 C501.63,77 505.47,81.68 510.63,81 Z M507.63,64 C507.63,55.71 508.91,53.26 510.63,53 C512.35,52.74 513.63,54.93 513.63,63.19 L513.63,64.85 C513.63,73.11 512.35,75.57 510.63,75.85 C508.91,76.13 507.63,73.94 507.63,65.66 L507.63,64 Z" id="Shape" fill="#FFFFFF"></path>
        </g>
    </g>
</svg>